<svg width="96" height="96" xmlns="http://www.w3.org/2000/svg" xmlns:xlink="http://www.w3.org/1999/xlink" xml:space="preserve" overflow="hidden"><defs><clipPath id="clip0"><rect x="894" y="149" width="96" height="96"/></clipPath></defs><g clip-path="url(#clip0)" transform="translate(-894 -149)"><path d="M904 170 904 224 980 224 980 170ZM944.122 204.464C942.948 205.631 941.052 205.631 939.878 204.464L907.431 172.017C907.427 172.013 907.427 172.007 907.431 172.003 907.433 172.001 907.435 172 907.438 172L976.562 172C976.568 172 976.572 172.005 976.572 172.01 976.572 172.013 976.571 172.015 976.569 172.017ZM929.586 197 906.017 220.569C906.013 220.573 906.007 220.573 906.003 220.569 906.001 220.567 906 220.565 906 220.562L906 173.438C906 173.432 906.005 173.428 906.01 173.428 906.013 173.428 906.015 173.429 906.017 173.431ZM931 198.414 938.464 205.878C940.416 207.831 943.582 207.831 945.535 205.879 945.535 205.879 945.536 205.878 945.536 205.878L953 198.414 976.569 221.983C976.573 221.987 976.573 221.993 976.569 221.997 976.567 221.999 976.565 222 976.562 222L907.438 222C907.432 222 907.428 221.995 907.428 221.99 907.428 221.987 907.429 221.985 907.431 221.983ZM954.414 197 977.983 173.431C977.987 173.427 977.993 173.427 977.997 173.431 977.999 173.433 978 173.435 978 173.438L978 220.562C978 220.568 977.995 220.572 977.99 220.572 977.987 220.572 977.985 220.571 977.983 220.569Z" fill="#FFFFFF"/></g></svg>