<svg width="29" height="29" xmlns="http://www.w3.org/2000/svg" xmlns:xlink="http://www.w3.org/1999/xlink" xml:space="preserve" overflow="hidden"><defs><clipPath id="clip0"><rect x="644" y="374" width="29" height="29"/></clipPath></defs><g clip-path="url(#clip0)" transform="translate(-644 -374)"><path d="M26.1544 3.68119C26.0611 3.61455 25.9381 3.60648 25.8369 3.66034L2.93021 15.8778C2.78295 15.9562 2.72715 16.1392 2.80557 16.2864 2.84146 16.3538 2.90153 16.4051 2.97371 16.43L9.9766 18.8536 10.1032 18.8953 12.0969 25.1644C12.1289 25.265 12.211 25.3416 12.3135 25.3665 12.3371 25.3721 12.3612 25.3749 12.3854 25.375 12.4655 25.375 12.5423 25.3431 12.599 25.2865L16.749 21.1368 22.8599 23.2438C22.9443 23.2735 23.0375 23.2637 23.1139 23.2172 23.1904 23.1713 23.2427 23.0939 23.2568 23.0058L26.2776 3.97451C26.2955 3.86126 26.2478 3.74765 26.1544 3.68119ZM3.83042 16.082 23.7779 5.44354C23.7792 5.44255 23.7811 5.44282 23.7821 5.44415 23.7831 5.44548 23.7828 5.44738 23.7815 5.44837L10.2358 18.2996 3.83163 16.0878C3.8299 16.0871 3.82903 16.0852 3.82963 16.0835 3.82984 16.0829 3.83024 16.0824 3.83072 16.082ZM10.6786 18.7122 23.9776 6.09514C23.9787 6.0939 23.9807 6.09381 23.9819 6.09498 23.9832 6.09616 23.9833 6.09813 23.9821 6.09936L13.5874 19.6255C13.5643 19.6549 13.5473 19.6887 13.5376 19.7248L12.3616 23.9842C12.3616 23.9859 12.3602 23.9872 12.3585 23.9872 12.3569 23.9872 12.3555 23.9859 12.3555 23.9842ZM12.9681 24.0546 14.0324 20.2 16.1134 20.9175 12.9718 24.0576C12.9701 24.0579 12.9685 24.0569 12.9682 24.0553 12.9682 24.055 12.9681 24.0548 12.9681 24.0546ZM22.713 22.5541 14.3221 19.6608 25.4735 5.15022C25.4741 5.1488 25.4757 5.14813 25.4771 5.14871 25.4785 5.14928 25.4792 5.15091 25.4786 5.15233L22.7167 22.5517C22.7164 22.5534 22.7148 22.5545 22.7132 22.5542 22.7131 22.5542 22.7131 22.5541 22.713 22.5541Z" stroke="#A91101" stroke-width="1.03571" fill="#A91101" transform="matrix(-1 0 0 1 673 374)"/></g></svg>