<svg width="67" height="67" xmlns="http://www.w3.org/2000/svg" xmlns:xlink="http://www.w3.org/1999/xlink" xml:space="preserve" overflow="hidden"><defs><clipPath id="clip0"><rect x="1011" y="205" width="67" height="67"/></clipPath></defs><g clip-path="url(#clip0)" transform="translate(-1011 -205)"><path d="M60.4256 8.50481C60.21 8.35085 59.9259 8.33222 59.6921 8.45666L6.76979 36.6832C6.42958 36.8644 6.30065 37.287 6.48183 37.6273 6.56474 37.783 6.70354 37.9015 6.87029 37.959L23.0494 43.5584 23.3418 43.6547 27.9481 58.1386C28.0218 58.3709 28.2116 58.5479 28.4485 58.6055 28.5029 58.6183 28.5587 58.6249 28.6146 58.625 28.7997 58.6249 28.9772 58.5514 29.108 58.4205L38.696 48.8332 52.8141 53.7012C53.0091 53.7697 53.2245 53.7472 53.4011 53.6398 53.5779 53.5337 53.6988 53.3549 53.7312 53.1512L60.7104 9.18249C60.7518 8.92084 60.6414 8.65835 60.4256 8.50481ZM8.84958 37.155 54.9351 12.5765C54.9382 12.5742 54.9426 12.5748 54.9449 12.5779 54.9472 12.5809 54.9466 12.5853 54.9435 12.5876L23.6482 42.2784 8.85238 37.1683C8.8484 37.1668 8.84637 37.1624 8.84777 37.1584 8.84826 37.1571 8.84916 37.1559 8.85028 37.155ZM24.6714 43.2318 55.3964 14.0819C55.3992 14.079 55.4037 14.0788 55.4066 14.0815 55.4094 14.0842 55.4096 14.0888 55.4069 14.0916L31.3916 45.3416C31.3381 45.4095 31.299 45.4876 31.2764 45.5712L28.5595 55.4118C28.5595 55.4156 28.5563 55.4188 28.5525 55.4188 28.5486 55.4188 28.5455 55.4156 28.5455 55.4118ZM29.9609 55.5744 32.4196 46.669 37.2276 48.3265 29.9692 55.5814C29.9655 55.5822 29.9618 55.5797 29.961 55.5759 29.9609 55.5755 29.9609 55.5749 29.9609 55.5744ZM52.475 52.1079 33.0889 45.4232 58.8525 11.8988C58.8539 11.8955 58.8576 11.894 58.8609 11.8953 58.8642 11.8966 58.8657 11.9004 58.8644 11.9037L52.4833 52.1023C52.4826 52.106 52.479 52.1086 52.4752 52.1079 52.4752 52.1079 52.475 52.1079 52.475 52.1079Z" fill="#A91101" transform="matrix(-1 0 0 1 1078 205)"/></g></svg>