<svg width="65" height="6" xmlns="http://www.w3.org/2000/svg" xmlns:xlink="http://www.w3.org/1999/xlink" xml:space="preserve" overflow="hidden"><defs><clipPath id="clip0"><rect x="190" y="402" width="65" height="6"/></clipPath></defs><g clip-path="url(#clip0)" transform="translate(-190 -402)"><path d="M97.6923 52.1025C97.6923 51.503 97.2063 51.0171 96.6068 51.0171L10.2447 51.0171C10.2387 51.017 10.2339 51.0121 10.234 51.0061 10.234 51.0033 10.2351 51.0006 10.2371 50.9986L24.6478 36.5879C25.0643 36.1567 25.0523 35.4696 24.6211 35.0531 24.2004 34.6468 23.5335 34.6468 23.1129 35.0531L6.83086 51.3351C6.40711 51.759 6.40711 52.4461 6.83086 52.87L23.1129 69.152C23.5442 69.5685 24.2313 69.5566 24.6478 69.1253 25.054 68.7047 25.054 68.0378 24.6478 67.6171L10.2371 53.2065C10.2329 53.2022 10.2329 53.1953 10.2372 53.1912 10.2392 53.1892 10.2419 53.188 10.2447 53.188L96.6068 53.188C97.2063 53.188 97.6923 52.702 97.6923 52.1025Z" stroke="#FFFFFF" stroke-width="1.08551" fill="#FFFFFF" transform="matrix(1 0 0 1.15158 162.195 345.424)"/></g></svg>